<?xml version="1.0" encoding="utf-8"?>
<!-- Generator: Adobe Illustrator 19.0.0, SVG Export Plug-In . SVG Version: 6.00 Build 0)  -->
<svg version="1.1" id="Capa_1" xmlns="http://www.w3.org/2000/svg" xmlns:xlink="http://www.w3.org/1999/xlink" x="0px" y="0px"
	 viewBox="182 326.7 724 189" style="enable-background:new 182 326.7 724 189;" xml:space="preserve">
<style type="text/css">
	.st0{fill:#2B2577;}
	.st1{fill:#E00069;}
	.st2{fill:url(#SVGID_1_);}
</style>
<title>AF_panacea-logo</title>
<path class="st0" d="M424.6,408.8c-1.7,0-3.3,0-4.9-0.1s-3.1-0.2-4.5-0.3v39.6h-18.6V346.8h29.2c4.3,0,8.6,0.2,12.8,0.6
	c3.3,0.4,6.6,1,9.8,1.9c6.9,2.1,12.2,5.5,16,10.2c3.8,4.6,5.6,10.6,5.6,17.7c0.1,4.6-0.9,9.1-3,13.2c-2.1,4-5.1,7.4-8.9,10
	c-4.3,2.9-9.2,5.1-14.2,6.3C437.6,408.2,431.1,408.9,424.6,408.8z M415.1,392.8c1.1,0.2,2.4,0.3,4,0.3c1.6,0.1,3.3,0.1,5.1,0.1
	c4.2,0.1,8.4-0.3,12.6-1.2c2.9-0.6,5.7-1.8,8.2-3.4c1.9-1.3,3.5-3.1,4.5-5.2c0.9-2.1,1.4-4.4,1.4-6.7c0.1-2.7-0.6-5.4-2-7.7
	c-1.3-2.2-3.7-3.9-7.1-5.1c-2.1-0.7-4.3-1.1-6.5-1.3c-3.2-0.3-6.4-0.4-9.6-0.4h-10.5L415.1,392.8z"/>
<path class="st0" d="M519.6,440.5h-0.3c-2.5,2.6-5.3,4.7-8.5,6.4c-1.9,1-4,1.8-6.1,2.4c-2.3,0.6-4.8,0.9-7.2,0.9
	c-3.3,0-6.6-0.5-9.8-1.6c-2.9-1-5.6-2.6-7.8-4.7c-2.2-2.1-3.9-4.6-5.1-7.4c-1.3-3.1-1.9-6.4-1.9-9.7c-0.1-3.6,0.7-7.3,2.2-10.6
	c1.4-3.1,3.4-5.8,6-8c2.7-2.3,5.9-4,9.2-5c3.9-1.2,7.9-1.7,11.9-1.7c2.9,0,5.9,0.2,8.8,0.6c2.4,0.3,4.7,0.8,7,1.4v-3
	c0-1.7-0.3-3.4-0.9-5c-0.6-1.6-1.6-3.1-2.8-4.2c-1.4-1.3-3.1-2.4-5-3c-2.4-0.8-5-1.2-7.6-1.1c-3.7,0-7.3,0.4-10.9,1.2
	c-4,0.9-8,2.1-11.8,3.6v-14c3.8-1.6,7.7-2.9,11.7-3.7c4.3-0.9,8.6-1.3,13-1.4c4.7-0.1,9.5,0.6,14,2c3.7,1.2,7.2,3.1,10.1,5.6
	c2.6,2.2,4.7,5,6.1,8.1c1.4,3.2,2,6.7,2,10.2v27.6c0,4.8,0,9,0.1,12.5c0.1,3.5,0.2,6.6,0.3,9.3h-16.2L519.6,440.5z M518.1,417.1
	c-1.7-0.4-3.7-0.8-5.9-1.1c-2.2-0.3-4.5-0.5-6.7-0.5c-4.4,0-7.9,0.9-10.4,2.6c-2.5,1.7-3.8,4.4-3.8,8c0,1.5,0.3,3,0.9,4.4
	c0.5,1.2,1.3,2.2,2.4,3.1c1,0.8,2.2,1.4,3.5,1.8c1.4,0.4,2.8,0.6,4.2,0.6c1.7,0,3.5-0.2,5.1-0.7c1.5-0.5,3-1.1,4.5-1.8
	c1.3-0.7,2.5-1.5,3.7-2.5c1-0.8,1.9-1.7,2.8-2.6L518.1,417.1z"/>
<path class="st0" d="M566.4,385.2h0.3c1.2-1.6,2.5-3.1,4-4.5c1.7-1.5,3.5-2.8,5.5-3.9c2.2-1.2,4.5-2.1,6.9-2.7c2.6-0.7,5.3-1,8-1
	c2.6,0,5.2,0.3,7.8,0.9c2.4,0.6,4.7,1.5,6.8,2.8c2.1,1.3,4,3,5.5,5c1.7,2.2,2.9,4.7,3.8,7.3c0.5,1.7,0.9,3.4,1,5.1
	c0.2,1.8,0.3,4,0.3,6.4v47.6h-17.9v-44.8c0-1.7-0.1-3.4-0.2-5.1c-0.1-1.3-0.4-2.5-0.8-3.7c-0.7-2.1-2.2-3.9-4.1-5
	c-2.1-1.1-4.4-1.6-6.7-1.5c-3.5,0-6.9,0.9-10,2.5c-3.3,1.7-6.3,4.2-8.5,7.2v50.5h-18V375h14.8L566.4,385.2z"/>
<path class="st0" d="M673.5,440.5h-0.3c-2.5,2.6-5.3,4.7-8.5,6.4c-1.9,1-4,1.8-6.1,2.4c-2.3,0.6-4.8,0.9-7.2,0.9
	c-3.3,0-6.6-0.5-9.8-1.6c-2.9-1-5.6-2.6-7.8-4.7c-2.2-2.1-3.9-4.6-5.1-7.4c-1.3-3.1-1.9-6.4-1.9-9.7c-0.1-3.6,0.7-7.3,2.2-10.6
	c1.4-3.1,3.4-5.8,6-8c2.7-2.3,5.9-4,9.2-5c3.9-1.2,7.9-1.7,11.9-1.7c2.9,0,5.9,0.2,8.8,0.6c2.4,0.3,4.7,0.8,7,1.4v-3
	c0-1.7-0.3-3.4-0.9-5c-0.6-1.6-1.6-3.1-2.8-4.2c-1.4-1.3-3.1-2.4-5-3c-2.4-0.8-5-1.2-7.6-1.1c-3.7,0-7.3,0.4-10.9,1.2
	c-4,1-8,2.3-11.8,3.8v-14c3.8-1.6,7.7-2.9,11.7-3.7c4.3-0.9,8.6-1.3,13-1.4c4.7-0.1,9.5,0.6,14,2c3.7,1.1,7.1,3,10.1,5.4
	c2.6,2.2,4.7,5,6.1,8.1c1.4,3.2,2,6.7,2,10.2v27.6c0,4.8,0,9,0.2,12.5c0.1,3.5,0.2,6.6,0.3,9.3h-16.1L673.5,440.5z M672,417.1
	c-1.7-0.4-3.7-0.8-5.9-1.1c-2.2-0.3-4.5-0.5-6.7-0.5c-4.4,0-7.9,0.9-10.4,2.6s-3.8,4.4-3.8,8c0,1.5,0.3,3,0.9,4.3
	c0.5,1.2,1.3,2.2,2.3,3.1c1,0.8,2.2,1.4,3.5,1.8c1.4,0.4,2.8,0.6,4.2,0.6c1.7,0,3.5-0.2,5.2-0.7c1.5-0.5,3-1.1,4.5-1.8
	c1.3-0.7,2.5-1.5,3.7-2.5c1-0.8,1.9-1.7,2.8-2.6L672,417.1z"/>
<path class="st0" d="M755.8,446.8c-2.7,1.1-5.5,1.9-8.3,2.5c-3.4,0.7-6.9,1-10.4,1c-5,0-10-0.7-14.8-2.3c-4.4-1.4-8.5-3.8-12-6.9
	c-3.5-3.2-6.3-7.2-8.1-11.7c-2.1-5.3-3.1-10.9-3-16.6c0-7.1,1.1-13.1,3.4-18.2c3.9-9.2,11.5-16.2,21-19.3c4.3-1.5,8.8-2.2,13.4-2.2
	c3.2,0,6.3,0.3,9.5,0.9c2.8,0.5,5.6,1.3,8.2,2.4V391c-2.3-1-4.7-1.8-7.1-2.3c-2.6-0.6-5.4-0.9-8.1-0.9c-2.8,0-5.6,0.4-8.2,1.3
	c-2.6,0.9-5,2.3-7,4.2c-2.2,2.1-3.8,4.7-4.8,7.6c-1.3,3.7-1.9,7.5-1.8,11.4c0,3.1,0.4,6.2,1.4,9.1c0.8,2.7,2.2,5.2,4,7.3
	c1.8,2.1,4.1,3.8,6.7,4.9c3,1.3,6.3,1.9,9.6,1.9c3,0,6-0.3,8.9-1c2.6-0.6,5.1-1.4,7.6-2.4L755.8,446.8z"/>
<path class="st0" d="M804.1,435.8c3.7,0,7.3-0.4,10.9-1.1c3.9-0.7,7.7-1.7,11.5-3V446c-3.5,1.3-7,2.2-10.7,2.8
	c-4.9,0.9-9.9,1.4-14.9,1.4c-5,0-10-0.6-14.8-2c-4.5-1.2-8.7-3.5-12.2-6.5c-3.6-3.2-6.5-7.1-8.3-11.6c-2-4.7-3.1-10.5-3.1-17.3
	c-0.1-6,0.9-11.9,2.9-17.5c1.7-4.6,4.3-8.9,7.7-12.4c3.1-3.2,6.9-5.7,11.1-7.4c4.1-1.6,8.5-2.5,12.9-2.5c4.4,0,8.7,0.7,12.8,2.1
	c3.9,1.4,7.3,3.7,10.2,6.7c3,3.4,5.3,7.4,6.7,11.7c1.7,5.5,2.5,11.2,2.4,16.9c-0.1,2.5-0.1,4.7-0.2,6.4h-48.1c0.2,3,0.9,6,2.3,8.7
	c1.2,2.3,2.9,4.3,5,5.8c2.2,1.5,4.6,2.6,7.2,3.3C798.1,435.4,801.1,435.8,804.1,435.8z M796.9,387.2c-2.1,0-4.2,0.4-6.1,1.2
	c-1.7,0.8-3.3,2-4.6,3.4c-1.3,1.5-2.4,3.2-3.1,5c-0.8,2-1.3,4-1.5,6.1h28.8c0-2.1-0.3-4.1-0.9-6.1c-0.5-1.8-1.4-3.5-2.6-5
	c-1.1-1.4-2.6-2.6-4.2-3.4C801,387.5,798.9,387.1,796.9,387.2L796.9,387.2z"/>
<path class="st0" d="M884.4,440h-0.3c-2.5,2.6-5.3,4.7-8.5,6.4c-1.9,1-4,1.8-6.1,2.4c-2.3,0.6-4.8,0.9-7.2,0.9
	c-3.3,0-6.6-0.5-9.8-1.6c-2.9-1-5.6-2.6-7.8-4.7c-2.2-2.1-3.9-4.6-5.1-7.4c-1.3-3.1-1.9-6.4-1.9-9.7c-0.1-3.6,0.7-7.3,2.2-10.6
	c1.4-3.1,3.4-5.8,6-8c2.7-2.3,5.9-4,9.2-5c3.9-1.2,7.9-1.7,11.9-1.7c2.9,0,5.9,0.2,8.8,0.6c2.4,0.3,4.7,0.8,7,1.4v-3
	c0-1.7-0.3-3.4-0.9-5c-0.6-1.6-1.6-3.1-2.8-4.2c-1.4-1.3-3.1-2.4-5-3c-2.4-0.8-5-1.2-7.6-1.1c-3.7,0-7.3,0.4-10.9,1.2
	c-4,1-7.9,2.3-11.8,3.8v-14c3.8-1.6,7.7-2.9,11.7-3.7c4.3-0.9,8.6-1.3,13-1.4c4.7-0.1,9.5,0.6,14,2c3.7,1.1,7.1,3,10.1,5.4
	c2.6,2.2,4.7,5,6.1,8.1c1.4,3.2,2,6.7,2,10.2V426c0,4.8,0,9,0.2,12.5c0.1,3.5,0.2,6.6,0.3,9.3h-16.2L884.4,440z M883,416.5
	c-1.7-0.4-3.7-0.8-5.9-1.1c-2.2-0.3-4.5-0.5-6.7-0.5c-4.4,0-7.9,0.9-10.4,2.6c-2.5,1.7-3.8,4.4-3.8,8c0,1.5,0.3,3,0.9,4.4
	c0.5,1.2,1.3,2.2,2.3,3.1c1,0.8,2.2,1.4,3.5,1.8c1.4,0.4,2.8,0.6,4.2,0.6c1.7,0,3.5-0.2,5.2-0.7c1.5-0.5,3-1.1,4.5-1.8
	c1.3-0.7,2.5-1.5,3.7-2.5c1-0.8,1.9-1.7,2.8-2.7L883,416.5z"/>
<path class="st1" d="M414.3,468.8c-1.6,0-3.1,0.2-4.6,0.8c-1.4,0.5-2.6,1.3-3.7,2.3c-1.1,1.1-1.9,2.4-2.5,3.8
	c-0.6,1.7-0.9,3.5-0.9,5.3c0,1.8,0.2,3.5,0.8,5.2c1,2.8,3.2,4.9,6.1,5.8c1.6,0.5,3.2,0.7,4.8,0.7c0.5,0,1,0,1.5-0.1s1.1-0.1,1.6-0.2
	c0.6-0.1,1.1-0.2,1.6-0.3c0.5-0.1,0.9-0.2,1.4-0.4v3.2c-1,0.4-2,0.6-3,0.8c-1.1,0.2-2.3,0.3-3.5,0.3c-2.2,0-4.4-0.3-6.4-1
	c-1.8-0.6-3.4-1.6-4.7-2.9c-1.3-1.3-2.3-2.9-2.9-4.6c-1.3-4-1.3-8.4,0-12.4c0.6-1.8,1.7-3.5,3-4.9c1.3-1.4,2.9-2.5,4.7-3.2
	c2-0.8,4.1-1.2,6.2-1.1c0.6,0,1.2,0,1.8,0.1c0.6,0,1.2,0.1,1.7,0.2c0.5,0.1,1,0.2,1.5,0.3c0.4,0.1,0.8,0.2,1.2,0.4v3.1
	c-0.9-0.3-1.9-0.5-2.9-0.7C416.4,469,415.4,468.9,414.3,468.8z"/>
<path class="st1" d="M452.5,480.8c0,2.1-0.3,4.1-1,6.1c-0.6,1.7-1.5,3.4-2.7,4.8c-1.2,1.3-2.6,2.4-4.2,3.1c-1.7,0.7-3.6,1.1-5.5,1.1
	c-2,0-3.9-0.3-5.7-1.1c-1.6-0.7-3.1-1.8-4.3-3.1c-1.2-1.4-2.1-3-2.7-4.8c-0.6-2-1-4-0.9-6.1c0-2.1,0.3-4.1,1-6.1
	c0.6-1.7,1.5-3.4,2.7-4.8c1.2-1.3,2.6-2.4,4.2-3.1c1.8-0.8,3.7-1.1,5.6-1.1c1.9,0,3.8,0.4,5.6,1.1c1.6,0.7,3.1,1.8,4.2,3.1
	c1.2,1.4,2.1,3,2.7,4.8C452.2,476.7,452.5,478.7,452.5,480.8z M448.9,480.8c0-1.8-0.2-3.5-0.8-5.2c-0.4-1.4-1.2-2.6-2.1-3.7
	c-0.9-1-2-1.8-3.2-2.3c-2.5-1-5.4-1-7.9,0c-1.2,0.5-2.3,1.3-3.2,2.3c-1,1.1-1.7,2.4-2.1,3.7c-0.5,1.7-0.8,3.4-0.8,5.2
	c0,1.7,0.2,3.5,0.8,5.1c0.5,1.4,1.2,2.6,2.1,3.7c0.9,1,2,1.7,3.2,2.2c1.3,0.5,2.6,0.8,4,0.8c1.3,0,2.7-0.2,3.9-0.8
	c1.2-0.5,2.3-1.3,3.2-2.3c1-1.1,1.7-2.3,2.1-3.7C448.7,484.3,449,482.6,448.9,480.8L448.9,480.8z"/>
<path class="st1" d="M484.9,480.8c0,2-0.3,4.1-0.9,6c-0.6,1.7-1.5,3.4-2.7,4.8c-1.2,1.3-2.6,2.4-4.2,3.1c-1.8,0.8-3.7,1.1-5.6,1.1
	c-2,0-3.9-0.3-5.7-1.1c-1.6-0.7-3.1-1.8-4.3-3.1c-1.2-1.4-2.1-3-2.7-4.8c-0.6-2-1-4-0.9-6.1c0-2.1,0.3-4.1,1-6.1
	c0.6-1.7,1.5-3.4,2.7-4.8c1.2-1.3,2.6-2.4,4.2-3.1c1.8-0.8,3.7-1.1,5.6-1.1c1.9,0,3.9,0.3,5.7,1.1c1.6,0.7,3.1,1.8,4.2,3.1
	c1.2,1.4,2.1,3,2.7,4.8C484.7,476.7,485,478.7,484.9,480.8z M481.4,480.8c0-1.8-0.2-3.5-0.8-5.2c-0.4-1.4-1.2-2.6-2.1-3.7
	c-0.9-1-2-1.8-3.2-2.3c-2.5-1-5.4-1-7.9,0c-1.2,0.5-2.3,1.3-3.2,2.3c-1,1.1-1.7,2.4-2.1,3.7c-0.5,1.7-0.8,3.4-0.8,5.2
	c0,1.7,0.2,3.5,0.8,5.1c0.5,1.4,1.2,2.6,2.1,3.7c0.9,1,2,1.8,3.2,2.3c1.3,0.5,2.6,0.8,4,0.8c1.3,0,2.7-0.2,3.9-0.8
	c1.2-0.5,2.3-1.3,3.2-2.3c1-1.1,1.7-2.3,2.1-3.7C481.2,484.3,481.4,482.6,481.4,480.8L481.4,480.8z"/>
<path class="st1" d="M495,495.3h-3.5v-29h8c1.1,0,2.2,0.1,3.3,0.2c1,0.1,1.9,0.4,2.8,0.7c1.6,0.5,2.9,1.5,3.9,2.8
	c0.9,1.3,1.4,2.9,1.4,4.6c0,1.3-0.3,2.7-0.9,3.9c-0.6,1.1-1.5,2.1-2.5,2.8c-1.2,0.8-2.6,1.4-4.1,1.7c-1.8,0.4-3.6,0.6-5.4,0.6
	c-1,0-2,0-3-0.1L495,495.3z M495,480.1c0.5,0.1,1,0.1,1.5,0.1c0.5,0,1,0,1.5,0c1.4,0,2.9-0.1,4.2-0.4c1-0.2,2-0.6,2.9-1.1
	c0.7-0.4,1.2-1.1,1.6-1.8c0.3-0.8,0.5-1.6,0.5-2.4c0-1-0.2-2-0.8-2.8c-0.6-0.8-1.4-1.3-2.3-1.6c-0.7-0.2-1.4-0.4-2.1-0.5
	c-0.9-0.1-1.9-0.1-2.8-0.1H495V480.1z"/>
<path class="st1" d="M520.3,492.1h14.9v3.2h-18.4v-29h17.6v3.2h-14.1v9.3h12.5v3.2h-12.5V492.1z"/>
<path class="st1" d="M544.8,483.3v12h-3.5v-29h7.5c1.1,0,2.2,0,3.2,0.1c0.8,0.1,1.6,0.2,2.4,0.4c1.8,0.4,3.4,1.4,4.6,2.8
	c1.1,1.4,1.7,3.2,1.6,5c0,1.1-0.2,2.1-0.6,3.1c-0.4,0.9-0.9,1.7-1.6,2.4c-0.7,0.7-1.5,1.3-2.4,1.7c-1,0.5-2.1,0.8-3.2,1v0.1
	l8.6,12.4H558l-8.9-12L544.8,483.3z M544.8,469.5v10.6h3.5c1.1,0,2,0,2.8-0.1c0.7-0.1,1.4-0.2,2.1-0.4c1.1-0.3,2.1-0.9,2.9-1.8
	c0.7-0.9,1.1-2.1,1-3.2c0-1.1-0.3-2.1-1-3c-0.7-0.8-1.6-1.4-2.6-1.6c-0.6-0.2-1.2-0.3-1.9-0.4c-0.7-0.1-1.6-0.1-2.8-0.1L544.8,469.5
	z"/>
<path class="st1" d="M564.7,495.3l11.8-29h3.1l11.8,29h-3.8l-3.5-8.8h-12.1l-3.5,8.8H564.7z M578,470.8c-1.3,3.6-2.5,6.9-3.7,9.9
	l-1.1,2.7h9.6l-1.1-2.7C580.5,477.6,579.3,474.3,578,470.8L578,470.8z"/>
<path class="st1" d="M603.8,495.3h-3.5v-25.9h-9.7v-3.2h22.9v3.2h-9.7V495.3z"/>
<path class="st1" d="M618.1,495.3v-29h3.5v29H618.1z"/>
<path class="st1" d="M638.8,490.8c1-3.2,2.2-6.4,3.4-9.6l5.6-14.9h3.5l-11,29h-3.1l-11-29h3.5l5.6,14.9
	C636.6,484.5,637.7,487.7,638.8,490.8L638.8,490.8z"/>
<path class="st1" d="M659.5,492.1h14.9v3.2H656v-29h17.6v3.2h-14.1v9.3h12.5v3.2h-12.5V492.1z"/>
<path class="st1" d="M701.8,483.3v12h-3.5v-29h7.5c1.1,0,2.2,0,3.2,0.1c0.8,0.1,1.6,0.2,2.4,0.4c1.8,0.4,3.4,1.4,4.6,2.8
	c1.1,1.4,1.7,3.2,1.6,5c0,1.1-0.2,2.1-0.6,3.1c-0.4,0.9-0.9,1.7-1.6,2.4c-0.7,0.7-1.5,1.3-2.4,1.7c-1,0.5-2.1,0.8-3.2,1v0.1
	l8.6,12.4h-3.5l-8.9-12L701.8,483.3z M701.8,469.5v10.6h3.5c1.1,0,2,0,2.8-0.1c0.7-0.1,1.4-0.2,2.1-0.4c1.1-0.3,2.1-0.9,2.8-1.8
	c0.7-0.9,1.1-2.1,1-3.2c0-1.1-0.3-2.1-1-3c-0.7-0.8-1.6-1.4-2.6-1.6c-0.6-0.2-1.2-0.3-1.9-0.4c-0.7-0.1-1.6-0.1-2.8-0.1L701.8,469.5
	z"/>
<path class="st1" d="M728.1,492.1H743v3.2h-18.4v-29h17.6v3.2h-14.1v9.3h12.5v3.2h-12.5V492.1z"/>
<path class="st1" d="M751.9,473.9c0,0.7,0.2,1.5,0.5,2.1c0.4,0.6,0.8,1,1.4,1.4c0.6,0.4,1.3,0.7,2,0.9c0.8,0.2,1.6,0.5,2.4,0.7
	c1.1,0.3,2.2,0.6,3.3,0.9c1,0.3,2,0.8,2.9,1.4c0.9,0.6,1.6,1.4,2.1,2.3c0.6,1.1,0.8,2.4,0.8,3.6c0,1.3-0.3,2.7-0.9,3.9
	c-0.6,1.1-1.4,2-2.4,2.7c-1.1,0.7-2.3,1.3-3.6,1.6c-1.5,0.4-3,0.5-4.5,0.5c-0.8,0-1.5,0-2.3-0.1c-0.8-0.1-1.5-0.2-2.3-0.4
	c-0.7-0.1-1.3-0.3-1.9-0.5c-0.5-0.2-0.9-0.4-1.4-0.6v-3.2c0.6,0.3,1.2,0.5,1.8,0.7c0.7,0.2,1.3,0.4,2,0.5c0.7,0.2,1.4,0.3,2.1,0.4
	c0.7,0.1,1.3,0.1,2,0.1c1,0,1.9-0.1,2.9-0.3c0.9-0.1,1.7-0.4,2.4-0.9c0.7-0.4,1.3-1,1.7-1.7c0.4-0.8,0.6-1.7,0.6-2.6
	c0-0.8-0.2-1.5-0.5-2.1c-0.4-0.6-0.8-1-1.4-1.4c-0.6-0.4-1.3-0.7-2-0.9c-0.8-0.2-1.6-0.5-2.4-0.6c-1.1-0.3-2.2-0.6-3.3-0.9
	c-1-0.3-2-0.8-2.8-1.4c-0.8-0.6-1.5-1.4-2-2.2c-0.6-1.1-0.8-2.3-0.8-3.5c0-1.3,0.2-2.6,0.8-3.8c0.5-1,1.3-1.9,2.2-2.6
	c1-0.7,2-1.2,3.2-1.5c1.3-0.3,2.5-0.5,3.8-0.5c1.5,0,2.9,0.1,4.3,0.4c1.3,0.3,2.5,0.7,3.7,1.2v3.3c-1.2-0.5-2.4-0.9-3.7-1.2
	c-1.3-0.3-2.7-0.5-4.1-0.5c-1,0-1.9,0.1-2.9,0.4c-0.7,0.2-1.4,0.5-2,1c-0.5,0.4-0.9,1-1.2,1.6C752.1,472.5,751.9,473.2,751.9,473.9z
	"/>
<path class="st1" d="M777.2,492.1h14.9v3.2h-18.4v-29h17.6v3.2h-14.1v9.3h12.5v3.2h-12.5V492.1z"/>
<path class="st1" d="M795.2,495.3l11.8-29h3.1l11.8,29h-3.8l-3.5-8.8h-12.1l-3.5,8.8H795.2z M808.5,470.8c-1.3,3.6-2.5,6.9-3.7,9.8
	l-1.1,2.7h9.6l-1.1-2.7C811.1,477.6,809.8,474.3,808.5,470.8L808.5,470.8z"/>
<path class="st1" d="M829.9,483.3v12h-3.5v-29h7.5c1.1,0,2.2,0,3.2,0.1c0.8,0.1,1.6,0.2,2.4,0.4c1.8,0.4,3.4,1.4,4.6,2.8
	c1.1,1.4,1.7,3.2,1.6,5c0,1.1-0.2,2.1-0.6,3.1c-0.4,0.9-0.9,1.7-1.6,2.4c-0.7,0.7-1.5,1.3-2.4,1.7c-1,0.5-2.1,0.8-3.2,1v0.1
	l8.6,12.4h-3.5l-8.9-12L829.9,483.3z M829.9,469.5v10.6h3.5c1.1,0,2,0,2.8-0.1c0.7-0.1,1.4-0.2,2.1-0.4c1.1-0.3,2.1-0.9,2.8-1.8
	c0.7-0.9,1.1-2.1,1-3.2c0-1.1-0.3-2.1-1-3c-0.7-0.8-1.6-1.4-2.6-1.6c-0.6-0.2-1.2-0.3-1.9-0.4c-0.7-0.1-1.6-0.1-2.8-0.1H829.9z"/>
<path class="st1" d="M866.7,468.8c-1.6,0-3.1,0.2-4.6,0.8c-1.4,0.5-2.6,1.3-3.7,2.3c-1.1,1.1-1.9,2.4-2.5,3.8
	c-0.6,1.7-0.9,3.5-0.9,5.3c0,1.8,0.2,3.5,0.8,5.2c1,2.8,3.2,4.9,6.1,5.8c1.6,0.5,3.2,0.7,4.8,0.7c0.5,0,1,0,1.5-0.1s1.1-0.1,1.6-0.2
	c0.5-0.1,1.1-0.2,1.6-0.3c0.5-0.1,0.9-0.2,1.4-0.4v3.2c-1,0.4-2,0.6-3,0.8c-1.1,0.2-2.3,0.3-3.5,0.3c-2.2,0-4.4-0.3-6.4-1
	c-1.8-0.6-3.4-1.6-4.7-2.9c-1.3-1.3-2.3-2.9-2.9-4.6c-1.3-4-1.3-8.4,0-12.4c0.6-1.8,1.7-3.5,3-4.9c1.3-1.4,2.9-2.5,4.7-3.2
	c2-0.8,4.1-1.2,6.2-1.1c0.6,0,1.2,0,1.8,0.1c0.6,0,1.2,0.1,1.7,0.2c0.5,0.1,1,0.2,1.5,0.3c0.4,0.1,0.8,0.2,1.2,0.4v3.1
	c-0.9-0.3-1.9-0.5-2.9-0.7C868.8,468.9,867.8,468.8,866.7,468.8z"/>
<path class="st1" d="M882.4,478.8h15.2v-12.6h3.5v29h-3.5V482h-15.2v13.3h-3.5v-29h3.5V478.8z"/>
<linearGradient id="SVGID_1_" gradientUnits="userSpaceOnUse" x1="216.5978" y1="354.0038" x2="345.6419" y2="483.0579" gradientTransform="matrix(1 0 0 -1 0 843.55)">
	<stop  offset="0" style="stop-color:#E00069"/>
	<stop  offset="0.92" style="stop-color:#2B2577"/>
</linearGradient>
<path class="st2" d="M365.3,416.7c-2.6,0-5.1,1.5-6.2,3.9h-39.3l31.9-31.9c3.7,1.2,7.6-0.7,8.9-4.4s-0.7-7.6-4.4-8.9
	s-7.6,0.7-8.9,4.4c-0.5,1.5-0.5,3,0,4.5l-36.3,36.3h-28v-19.5h19.4l32.5-32.5c3.7,1.2,7.6-0.7,8.9-4.4c1.2-3.7-0.7-7.6-4.4-8.9
	c-3.7-1.2-7.6,0.7-8.9,4.4c-0.5,1.5-0.5,3,0,4.5l-30.7,30.7h-16.8v-24.2h10.6l17.9-17.9c3.7,1.2,7.6-0.7,8.9-4.4
	c1.2-3.7-0.7-7.6-4.4-8.9c-3.7-1.2-7.6,0.7-8.9,4.4c-0.5,1.5-0.5,3,0,4.5l-16.1,16.1h-8.1v-20c3.5-1.7,4.9-5.9,3.2-9.4
	s-5.9-4.9-9.4-3.2c-3.5,1.7-4.9,5.9-3.2,9.4c0.7,1.4,1.8,2.5,3.2,3.2v45.9l-9.2-9.2c-0.1-0.2-0.3-0.3-0.5-0.5l-19.8-19.7v-22.5
	c0-1.7-1.4-3.1-3.1-3.1c-1.7,0-3.1,1.4-3.1,3.1c0,0,0,0,0,0v20.7h-20.7c-1.7,0-3.1,1.4-3.1,3.1c0,1.7,1.4,3.1,3.1,3.1H243l14.7,14.7
	h-23.5c-0.8,0-1.6,0.3-2.2,0.9l-9.6,9.6h-22.5c-1.7,0-3.1,1.4-3.1,3.1c0,1.7,1.4,3.1,3.1,3.1h20.7v20.7c0,1.7,1.4,3.1,3.1,3.1
	c1.7,0,3.1-1.4,3.1-3.1v-22.5l7.5-7.5l19.6,19.6c1.2,1.2,3.2,1.2,4.4,0c1.2-1.2,1.2-3.2,0-4.4l-16.4-16.4H264l13,12.9v23.1l-4,3.9
	h-65.2l-15.9-15.9c-1.3-1.2-3.2-1.1-4.4,0.2c-1.1,1.2-1.1,3,0,4.2l14.6,14.6L187.4,444c-1.3,1.2-1.3,3.1-0.2,4.4s3.1,1.3,4.4,0.2
	c0.1-0.1,0.1-0.1,0.2-0.2l15.9-15.9h12.7v40.7c0,0.8,0.3,1.6,0.9,2.2l11.3,11.3v17.6c0,1.7,1.4,3.1,3.1,3.1c1.7,0,3.1-1.4,3.1-3.1
	c0,0,0,0,0,0v-16h16c1.7,0,3.1-1.4,3.1-3.1c0-1.7-1.4-3.1-3.1-3.1h-18l-9-9l14.1-14.1c1.2-1.3,1.1-3.2-0.2-4.4c-1.2-1.1-3-1.1-4.2,0
	l-11,11v-33.1h40.3L254.3,445c-1.2,1.2-1.2,3.2,0,4.4l35.6,35.8l-20.9,20.9c-1.3,1.2-1.3,3.1-0.2,4.4c1.2,1.3,3.1,1.3,4.4,0.2
	c0.1-0.1,0.1-0.1,0.2-0.2l20.9-20.9l20.9,20.9c1.2,1.3,3.1,1.3,4.4,0.2c1.3-1.2,1.3-3.1,0.2-4.4c-0.1-0.1-0.1-0.1-0.2-0.2L296.5,483
	l-35.7-35.7l13.7-13.8l53.4,53.4c-1.2,3.7,0.7,7.6,4.4,8.9s7.6-0.7,8.9-4.4s-0.7-7.6-4.4-8.9c-1.5-0.5-3-0.5-4.5,0L279,429.1
	l2.3-2.4h29.8l36.8,36.8c-1.2,3.7,0.7,7.6,4.4,8.9s7.6-0.7,8.9-4.4c1.2-3.7-0.7-7.6-4.4-8.9c-1.5-0.5-3-0.5-4.5,0l-32.5-32.4h39.2
	c1.7,3.5,5.9,4.9,9.4,3.2c3.5-1.7,4.9-5.9,3.2-9.4C370.5,418.2,368,416.7,365.3,416.7L365.3,416.7z"/>
</svg>
